<?xml version="1.0" encoding="utf-8"?>
<!-- Generator: Adobe Illustrator 21.0.2, SVG Export Plug-In . SVG Version: 6.00 Build 0)  -->
<svg version="1.1" id="Camada_1" xmlns="http://www.w3.org/2000/svg" xmlns:xlink="http://www.w3.org/1999/xlink" x="0px" y="0px"
	 viewBox="0 0 102 116.5" style="enable-background:new 0 0 102 116.5;" xml:space="preserve">
<style type="text/css">
	.st0{fill:#1873FF;}
	.st1{fill:#2A96FF;}
	.st2{fill:#FFFFFF;}
</style>
<polygon class="st0" points="2.2,2.1 10.6,103 51,114.5 91.4,103 99.8,2.1 "/>
<polygon class="st1" points="51,11.5 51,106.5 84.7,96.7 92.3,11.5 "/>
<g>
	<path class="st2" d="M42.2,42.1l-1.1,4.5c0,0-5.9-2-9.3,0.8c-1.7,1.4-4,8.6,0.8,11.8c3.4,2.2,8.4,0.4,8.4,0.4l0.9,4.2
		c0,0-9.4,3.6-14.8-2.3s-2.4-13.9-0.9-15.9C27.9,43.5,33,39,42.2,42.1z"/>
	<path class="st2" d="M58.9,42.4l-1.2,4.3c0,0-5.1-2.3-6.7-1.1c-1.8,1.4-1.2,3.3,1.2,4.4c2.4,1,8.7,3.8,7.4,8.9s-5.2,6.2-8.9,5.9
		c-3.8-0.3-6.4-1.5-6.4-1.5l1.1-4.1c0,0,4.9,2.2,7.3,0.8s1.9-3.5-0.1-4.3s-8.2-2.1-8.4-7.8s5.6-6.9,7.8-6.9
		C54.4,41.1,58.9,42.4,58.9,42.4z"/>
	<path class="st2" d="M76.8,42.4l-1.2,4.3c0,0-5.1-2.3-6.7-1.1c-1.8,1.4-1.2,3.3,1.2,4.4c2.4,1,8.7,3.8,7.4,8.9s-5.2,6.2-8.9,5.9
		c-3.8-0.3-6.4-1.5-6.4-1.5l1.1-4.1c0,0,4.9,2.2,7.3,0.8s1.9-3.5-0.1-4.3s-8.2-2.1-8.4-7.8s5.6-6.9,7.8-6.9
		C72.3,41.1,76.8,42.4,76.8,42.4z"/>
</g>
</svg>
